# xmcd
#
# Track frame offsets: 
#        151
#        16860
#        32386
#        53247
#        78100
#        96849
#        117152
#        129005
#        143506
#        161852
#        179551
#        196105
#        211027
#        231588
#        246963
#        263872
#        281166
#
# Disc length: 3970 seconds
#
# Revision: 1
# Processed by: cddbd v1.5.2PL0 Copyright (c) Steve Scherf et al.
# Submitted via: ExactAudioCopy v0.99pb3
#
DISCID=e10f8011
DTITLE=Gipsy Kings - Golden Hits - CD1
DYEAR=2003
DGENRE=Flamenco
TTITLE0=Un Amor
TTITLE1=Djobi Djoba
TTITLE2=Escucha Me
TTITLE3=Viento Del Arena
TTITLE4=Este Mundo
TTITLE5=Trista Pena
TTITLE6=Galaxia
TTITLE7=Tu Quieres Volver
TTITLE8=Habla Me
TTITLE9=A Mi Maneta
TTITLE10=Volare
TTITLE11=Pida Me La
TTITLE12=La Dona
TTITLE13=Ternuras
TTITLE14=Baila Me
TTITLE15=Madre Mia
TTITLE16=Inspiration
EXTD=
EXTT0=
EXTT1=
EXTT2=
EXTT3=
EXTT4=
EXTT5=
EXTT6=
EXTT7=
EXTT8=
EXTT9=
EXTT10=
EXTT11=
EXTT12=
EXTT13=
EXTT14=
EXTT15=
EXTT16=
PLAYORDER=
